<svg version="1.1" xmlns="http://www.w3.org/2000/svg" viewBox="0 0 636.0000610351562 499.9500198364258" width="636.0000610351562" height="499.9500198364258">
  <!-- svg-source:excalidraw -->
  
  <defs>
    <style>
      @font-face {
        font-family: "Virgil";
        src: url("https://excalidraw.com/Virgil.woff2");
      }
      @font-face {
        font-family: "Cascadia";
        src: url("https://excalidraw.com/Cascadia.woff2");
      }
    </style>
  </defs>
  <rect x="0" y="0" width="636.0000610351562" height="499.9500198364258" fill="#ffffff"></rect><g stroke-linecap="round" transform="translate(54.000030517578125 69.60002136230469) rotate(0 62 17.5)"><path d="M1.63 -1.81 C29.87 -1.11, 62.43 1.41, 125.51 1.17 M-0.79 0.54 C47.87 0.23, 96.65 -0.24, 123.03 -0.79 M124.3 1.03 C124.31 11.14, 125.28 22.85, 123.68 33.86 M123.5 -0.3 C123.4 6.58, 123.64 15.67, 123.86 35.54 M124.71 33.89 C89.57 32, 53.4 34.92, -0.74 36.9 M124.68 35.77 C94.88 35.31, 64.62 33.53, -0.41 34.99 M-0.11 33.22 C-1.36 24.75, -0.73 9.18, -0.28 -1.59 M-0.07 34.34 C0.01 25.19, 0.3 15.92, -0.14 -0.37" stroke="#000000" stroke-width="1" fill="none"></path></g><g transform="translate(59.000030517578125 74.60002136230469) rotate(0 57 12.5)"><text x="57" y="18" font-family="Virgil, Segoe UI Emoji" font-size="20px" fill="#000000" text-anchor="middle" style="white-space: pre;" direction="ltr">socket()</text></g><g stroke-linecap="round" transform="translate(48 156.9000244140625) rotate(0 62 17.5)"><path d="M0.16 -1.89 C31.88 0.95, 68.22 1.32, 123.74 -1.02 M0.42 -0.52 C32.49 0.38, 66.83 -1.04, 124.31 0.43 M123.11 0.51 C125.3 6.36, 122.14 18.12, 123.13 36.94 M124.73 -0.98 C123.69 8.54, 124.77 16.54, 124.92 34.11 M125.85 33.9 C80.22 34.34, 34 34.59, -1.93 34.32 M124.42 35.78 C91.55 33.75, 58.85 34.16, -0.26 34.37 M1.08 36.81 C-1.72 21.04, 0.04 7.05, -0.31 -0.87 M0.78 35.91 C1.07 21.94, 0.55 10.14, 0.13 -0.67" stroke="#000000" stroke-width="1" fill="none"></path></g><g transform="translate(53 161.9000244140625) rotate(0 57 12.5)"><text x="57" y="18" font-family="Virgil, Segoe UI Emoji" font-size="20px" fill="#000000" text-anchor="middle" style="white-space: pre;" direction="ltr">bind()</text></g><g stroke-linecap="round" transform="translate(48.800018310546875 255.5) rotate(0 62 18)"><path d="M0.87 -1.29 C42.98 1.35, 87.61 0.13, 125.52 -1.88 M0.97 -0.65 C27.7 1.32, 54.78 -0.44, 123.46 0.33 M122.22 1.34 C122.99 14.47, 125.89 24.39, 125.75 34.27 M123.66 -0.39 C124.29 12.32, 124.16 26.19, 123.86 35.22 M122.74 37.81 C94.64 37.36, 63.81 37.49, -1.5 35.72 M123.56 36.49 C84.76 35.54, 47.13 36.71, 0.92 35.16 M-1.34 34.76 C-0.44 23.13, 0.86 12.94, -1.31 0.3 M0.12 36.17 C1.06 27.97, 0.44 19.33, 0.05 0.41" stroke="#000000" stroke-width="1" fill="none"></path></g><g transform="translate(53.800018310546875 260.5) rotate(0 57 12.5)"><text x="57" y="18" font-family="Virgil, Segoe UI Emoji" font-size="20px" fill="#000000" text-anchor="middle" style="white-space: pre;" direction="ltr">recvfrom()</text></g><g stroke-linecap="round" transform="translate(46.60003662109375 358.50006103515625) rotate(0 62 17.5)"><path d="M1.75 -1.73 C48.95 -0.8, 93.87 0.01, 123.21 1.12 M-0.14 -0.78 C31.99 -1.34, 64.77 -1.6, 124.91 0.64 M122.5 -0.28 C124.45 12.84, 123.88 26, 124.99 34.17 M124.92 -0.84 C124.68 9.16, 124.4 18.46, 123.38 34.71 M122.69 35.3 C89.27 34.92, 56.42 36.13, 0.34 36.78 M124.05 35.41 C82.93 35.26, 43.49 34.72, 0.09 35.4 M-0.56 33.47 C1.43 21.97, -1.69 9.57, 0.61 -0.91 M0.36 34.08 C0.08 24.95, 0.09 14.08, 0.38 0.68" stroke="#000000" stroke-width="1" fill="none"></path></g><g transform="translate(51.60003662109375 363.50006103515625) rotate(0 57 12.5)"><text x="57" y="18" font-family="Virgil, Segoe UI Emoji" font-size="20px" fill="#000000" text-anchor="middle" style="white-space: pre;" direction="ltr">sendto()</text></g><g stroke-linecap="round" transform="translate(46.4000244140625 452.89996337890625) rotate(0 62 17.5)"><path d="M-1.26 1.81 C31.91 2, 62.35 2.13, 122.5 -0.28 M-0.44 0.49 C38.41 -0.08, 78.43 1.1, 124.92 -0.84 M122.66 -1.24 C123.27 11.29, 124.57 25.26, 122.69 35.3 M124.12 0.17 C124.72 8.31, 124.09 16.02, 124.05 35.41 M123.68 35.18 C95.98 37.07, 65.03 34.19, -0.56 33.47 M124.82 35.3 C78.92 33.78, 33.9 33.85, 0.36 34.08 M-0.24 35.75 C1.24 23.31, 1.46 16.75, -1.09 -1.42 M-0.12 34.42 C-0.9 27.93, 0.05 20.29, -0.75 0.56" stroke="#000000" stroke-width="1" fill="none"></path></g><g transform="translate(51.4000244140625 457.89996337890625) rotate(0 57 12.5)"><text x="57" y="18" font-family="Virgil, Segoe UI Emoji" font-size="20px" fill="#000000" text-anchor="middle" style="white-space: pre;" direction="ltr">close()</text></g><g stroke-linecap="round" transform="translate(467.90003967285156 71.6500015258789) rotate(0 62 17.5)"><path d="M1.3 -1.96 C39.13 -1.2, 77.9 0.21, 123.18 0.34 M0.5 -0.06 C40.1 1.67, 81.84 1.6, 123.16 -0.56 M125.72 -0.31 C125.61 9.3, 124.73 16.24, 125.04 33.59 M124.41 0.71 C123.37 10.26, 124.66 20.88, 123.27 35.61 M123.71 33.2 C91.53 37.79, 61.34 37.86, -1.56 34.83 M124.52 35.26 C84.23 34.15, 43.67 35.81, -0.88 34.17 M-0.21 36.62 C1.01 26.83, -0.68 17.03, 1.6 -1.45 M-0.58 34.15 C-0.23 22.01, -0.87 9.55, 0.13 -0.21" stroke="#000000" stroke-width="1" fill="none"></path></g><g transform="translate(472.90003967285156 76.6500015258789) rotate(0 57 12.5)"><text x="57" y="18" font-family="Virgil, Segoe UI Emoji" font-size="20px" fill="#000000" text-anchor="middle" style="white-space: pre;" direction="ltr">socket()</text></g><g stroke-linecap="round" transform="translate(462.6999969482422 351.15003204345703) rotate(0 62 18)"><path d="M1.53 -0.29 C24.23 1.39, 50.62 1.97, 122.46 1 M0.92 0.65 C35.6 -1.45, 72.02 -1.57, 123.7 0.86 M124.97 1.21 C125.37 8.83, 124.11 20.4, 122.41 36.82 M124.67 0.66 C123.05 13.98, 123.24 26.24, 124.98 35.86 M122.51 37.65 C96.4 36.81, 72.38 38.63, -0.13 37.03 M123.69 36.89 C82.74 34.21, 42.72 34.77, 0.47 35.89 M-0.77 35.28 C1.44 20.82, 1.01 10.14, 1.11 -1.17 M-0.59 35.68 C0.12 28.06, 0.92 21.17, 0.7 -0.82" stroke="#000000" stroke-width="1" fill="none"></path></g><g transform="translate(467.6999969482422 356.15003204345703) rotate(0 57 12.5)"><text x="57" y="18" font-family="Virgil, Segoe UI Emoji" font-size="20px" fill="#000000" text-anchor="middle" style="white-space: pre;" direction="ltr">recvfrom()</text></g><g stroke-linecap="round" transform="translate(463.6999969482422 250.94998931884766) rotate(0 62 17.5)"><path d="M-0.82 0.34 C27.21 1.09, 51.82 1.18, 123.88 -0.72 M-0.84 -0.56 C45.25 -1.49, 91.9 0.06, 123.84 0.92 M125.04 -1.41 C123.94 13.55, 122.58 28.07, 125.43 33.76 M123.27 0.61 C123.7 10.56, 125.22 21.96, 123.1 34.06 M122.44 34.83 C77.47 37.68, 29.91 37.05, 0.51 35.48 M123.12 34.17 C95.86 35.83, 69.27 36, 0.81 35.46 M1.6 33.55 C1.31 25.28, 1.24 11.23, -1.7 0.1 M0.13 34.79 C1.14 26.61, 0.91 16.13, 0.63 0.53" stroke="#000000" stroke-width="1" fill="none"></path></g><g transform="translate(468.6999969482422 255.94998931884766) rotate(0 57 12.5)"><text x="57" y="18" font-family="Virgil, Segoe UI Emoji" font-size="20px" fill="#000000" text-anchor="middle" style="white-space: pre;" direction="ltr">sendto()</text></g><g stroke-linecap="round" transform="translate(464.30006408691406 454.9500198364258) rotate(0 62 17.5)"><path d="M0.53 0.91 C33.84 0.79, 70.65 -0.93, 125.44 1.83 M-0.85 -0.68 C44.96 1.55, 90.35 1.61, 124.89 0.48 M123.78 -0.08 C122.59 13.44, 125.61 24, 124.32 36.35 M123.47 -0.5 C124.73 12.68, 122.84 24.71, 124.79 34.25 M124.45 36.66 C76.45 35.93, 29.68 35.37, -1.55 34.38 M123.46 34.73 C76.25 33.86, 28.38 34.42, 0.23 34.61 M1.18 36.58 C0.83 24.59, -1.98 16.63, -0.84 -1.19 M0.94 35.64 C0.66 24.8, 0.58 16.77, 0.35 -0.21" stroke="#000000" stroke-width="1" fill="none"></path></g><g transform="translate(469.30006408691406 459.9500198364258) rotate(0 57 12.5)"><text x="57" y="18" font-family="Virgil, Segoe UI Emoji" font-size="20px" fill="#000000" text-anchor="middle" style="white-space: pre;" direction="ltr">close()</text></g><g stroke-linecap="round" transform="translate(10 228) rotate(0 308.0000305175781 91.19999694824219)"><path d="M0.41 -0.24 C191.52 0.21, 383.48 -0.36, 615.22 0.54 M615.64 1.78 C615.76 57.49, 614.2 114.54, 614.98 183.49 M615.32 182.09 C433.74 184.1, 250.28 183.16, 0.17 182.58 M1.97 183 C1.76 140.62, -0.36 95.22, -0.02 -1.98" stroke="#000000" stroke-width="1.5" fill="none" stroke-dasharray="8 9"></path></g><g stroke-linecap="round"><g transform="translate(113.20001220703125 106.40000915527344) rotate(0 0.73852869400028 23.591748853027838)"><path d="M0.74 -1.14 C1 6.88, 1.9 40.12, 1.81 48.32 M-0.33 0.88 C-0.15 8.58, 1.49 39.24, 1.38 46.79" stroke="#000000" stroke-width="1" fill="none"></path></g><g transform="translate(113.20001220703125 106.40000915527344) rotate(0 0.73852869400028 23.591748853027838)"><path d="M-9.13 26.49 C-2.59 30.69, -0.25 39.77, 2.47 45.2 M-7.11 24.37 C-4.83 31.58, -1.84 37.42, 0.94 47.28" stroke="#000000" stroke-width="1" fill="none"></path></g><g transform="translate(113.20001220703125 106.40000915527344) rotate(0 0.73852869400028 23.591748853027838)"><path d="M7.01 26.09 C8.41 30.52, 5.61 39.72, 2.47 45.2 M9.03 23.97 C6.8 31.19, 5.29 37.14, 0.94 47.28" stroke="#000000" stroke-width="1" fill="none"></path></g></g><g stroke-linecap="round"><g transform="translate(113.20001220703125 196.00003051757812) rotate(0 -1.016102320305066 29.545838796300814)"><path d="M-0.05 0.82 C-0.21 10.25, -1 47.92, -1.23 57.43 M-1.54 0.21 C-1.79 9.76, -1.89 49.02, -1.98 58.88" stroke="#000000" stroke-width="1" fill="none"></path></g><g transform="translate(113.20001220703125 196.00003051757812) rotate(0 -1.016102320305066 29.545838796300814)"><path d="M-10.3 32.37 C-9.09 39.5, -5.63 45.75, -2.55 57.25 M-11.13 32.36 C-8.98 39.07, -6.01 47.64, -1.32 57.99" stroke="#000000" stroke-width="1" fill="none"></path></g><g transform="translate(113.20001220703125 196.00003051757812) rotate(0 -1.016102320305066 29.545838796300814)"><path d="M9.41 32.48 C5.19 39.58, 3.22 45.79, -2.55 57.25 M8.58 32.47 C4.79 39.35, 1.82 47.88, -1.32 57.99" stroke="#000000" stroke-width="1" fill="none"></path></g></g><g stroke-linecap="round"><g transform="translate(109.20001220703125 294.4000244140625) rotate(0 -0.07502477088746673 30.58390472052156)"><path d="M0.81 -0.5 C0.71 9.83, -0.02 52.64, 0.01 62.98 M-0.22 -1.81 C-0.53 8.69, -1.09 50.45, -0.94 61.16" stroke="#000000" stroke-width="1" fill="none"></path></g><g transform="translate(109.20001220703125 294.4000244140625) rotate(0 -0.07502477088746673 30.58390472052156)"><path d="M-11.98 32.96 C-6.35 44.39, -5.12 52.1, -0.97 60.29 M-10.57 33.09 C-7.75 43.48, -4.1 54.66, -0.74 60.39" stroke="#000000" stroke-width="1" fill="none"></path></g><g transform="translate(109.20001220703125 294.4000244140625) rotate(0 -0.07502477088746673 30.58390472052156)"><path d="M8.54 33 C6.94 44.55, 0.93 52.26, -0.97 60.29 M9.95 33.13 C4.98 43.59, 0.84 54.76, -0.74 60.39" stroke="#000000" stroke-width="1" fill="none"></path></g></g><g stroke-linecap="round"><g transform="translate(107.9560780896789 399.20001220703125) rotate(0 0.043475602291692894 25.027323341770114)"><path d="M-1.16 0.33 C-0.93 8.38, 0.95 41.08, 1.25 49.24 M0.43 -0.54 C0.56 7.6, 0.7 42.09, 0.61 50.6" stroke="#000000" stroke-width="1" fill="none"></path></g><g transform="translate(107.9560780896789 399.20001220703125) rotate(0 0.043475602291692894 25.027323341770114)"><path d="M-7.27 28.24 C-5.81 34.01, -3.26 42.51, 0.74 50.68 M-8.36 26.51 C-6.09 32.4, -3.47 38.93, 0.66 51.24" stroke="#000000" stroke-width="1" fill="none"></path></g><g transform="translate(107.9560780896789 399.20001220703125) rotate(0 0.043475602291692894 25.027323341770114)"><path d="M9.69 28.27 C6.28 33.87, 3.94 42.37, 0.74 50.68 M8.61 26.55 C6.98 32.31, 5.72 38.83, 0.66 51.24" stroke="#000000" stroke-width="1" fill="none"></path></g></g><g stroke-linecap="round"><g transform="translate(532.4000244140625 109.60002136230469) rotate(0 0.5583109239209421 69.06584961573593)"><path d="M-0.1 0.52 C-0.17 23.53, 0.08 114.2, 0.56 137.11 M-1.61 -0.25 C-1.41 23, 2.02 115.1, 2.73 138.38" stroke="#000000" stroke-width="1" fill="none"></path></g><g transform="translate(532.4000244140625 109.60002136230469) rotate(0 0.5583109239209421 69.06584961573593)"><path d="M-7.61 108.82 C-5.22 123.25, 0.47 130.46, 1.56 139.95 M-8.36 111.51 C-5.78 116.73, -3.46 122.98, 2.55 137.8" stroke="#000000" stroke-width="1" fill="none"></path></g><g transform="translate(532.4000244140625 109.60002136230469) rotate(0 0.5583109239209421 69.06584961573593)"><path d="M12.9 108.13 C7.4 122.81, 5.2 130.29, 1.56 139.95 M12.14 110.82 C9.89 116.2, 7.38 122.61, 2.55 137.8" stroke="#000000" stroke-width="1" fill="none"></path></g></g><g stroke-linecap="round"><g transform="translate(530 288.0000305175781) rotate(0 0.6044587129214847 29.52036617788488)"><path d="M1.01 0.15 C1.01 9.97, -0.48 48.86, -0.6 58.9 M0.08 -0.82 C0.53 9.11, 1.87 50.02, 1.8 59.86" stroke="#000000" stroke-width="1" fill="none"></path></g><g transform="translate(530 288.0000305175781) rotate(0 0.6044587129214847 29.52036617788488)"><path d="M-8.68 30.85 C-8.07 39.3, -2.96 46.89, 3.67 61.03 M-9.17 32.72 C-5.49 39.49, -2.36 47.42, 2.07 60.01" stroke="#000000" stroke-width="1" fill="none"></path></g><g transform="translate(530 288.0000305175781) rotate(0 0.6044587129214847 29.52036617788488)"><path d="M11.84 30.5 C7.3 39.21, 7.26 46.89, 3.67 61.03 M11.35 32.38 C9.27 39.09, 6.63 47.11, 2.07 60.01" stroke="#000000" stroke-width="1" fill="none"></path></g></g><g stroke-linecap="round"><g transform="translate(528.4000244140625 386.4000244140625) rotate(0 0.49759879509457505 32.72920921961776)"><path d="M-0.02 0.04 C0.55 11.02, 2.17 54.32, 2.49 65.14 M-1.49 -0.98 C-0.92 10.23, 1.54 55.28, 2.01 66.44" stroke="#000000" stroke-width="1" fill="none"></path></g><g transform="translate(528.4000244140625 386.4000244140625) rotate(0 0.49759879509457505 32.72920921961776)"><path d="M-9.56 40.27 C-7.96 45.48, -5.61 52.23, 2.67 67.88 M-9.43 38.29 C-5.34 46.99, -2.29 56.07, 3 65.61" stroke="#000000" stroke-width="1" fill="none"></path></g><g transform="translate(528.4000244140625 386.4000244140625) rotate(0 0.49759879509457505 32.72920921961776)"><path d="M10.94 39.26 C7.95 44.7, 5.72 51.66, 2.67 67.88 M11.07 37.28 C8.56 46.47, 5 55.89, 3 65.61" stroke="#000000" stroke-width="1" fill="none"></path></g></g><g stroke-linecap="round"><g transform="translate(461.20001220703125 268.8000183105469) rotate(0 -141.17839416479228 0.07499919054563975)"><path d="M-0.05 -0.22 C-46.89 0.19, -234.66 1.44, -281.44 1.53 M-1.54 -1.38 C-48.48 -1.23, -235.72 -0.67, -282.3 -0.21" stroke="#000000" stroke-width="1" fill="none"></path></g><g transform="translate(461.20001220703125 268.8000183105469) rotate(0 -141.17839416479228 0.07499919054563975)"><path d="M-254.54 -10.37 C-260.44 -6.46, -269.88 -5.84, -282.43 0.06 M-254.19 -11.42 C-262.01 -6.61, -271.54 -4.48, -282.98 0.54" stroke="#000000" stroke-width="1" fill="none"></path></g><g transform="translate(461.20001220703125 268.8000183105469) rotate(0 -141.17839416479228 0.07499919054563975)"><path d="M-254.42 10.15 C-260.19 8.66, -269.66 3.88, -282.43 0.06 M-254.07 9.1 C-262.02 7.51, -271.59 3.23, -282.98 0.54" stroke="#000000" stroke-width="1" fill="none"></path></g></g><g stroke-linecap="round"><g transform="translate(174 374.4000244140625) rotate(0 142.45491452647838 -1.4825946524739209)"><path d="M0.31 -0.21 C47.83 -0.56, 238.14 -2.44, 285.89 -2.76 M-0.98 -1.36 C46.26 -1.55, 236.8 -1.88, 284.68 -1.83" stroke="#000000" stroke-width="1" fill="none"></path></g><g transform="translate(174 374.4000244140625) rotate(0 142.45491452647838 -1.4825946524739209)"><path d="M256.14 7.6 C264.96 5.28, 276.38 0.49, 286.37 -3.8 M256 7.92 C267.95 4.88, 278.87 0.54, 284.49 -1.04" stroke="#000000" stroke-width="1" fill="none"></path></g><g transform="translate(174 374.4000244140625) rotate(0 142.45491452647838 -1.4825946524739209)"><path d="M256.13 -12.92 C264.83 -7.72, 276.26 -4.98, 286.37 -3.8 M255.98 -12.6 C268.08 -7.46, 279 -3.62, 284.49 -1.04" stroke="#000000" stroke-width="1" fill="none"></path></g></g><g transform="translate(254.79998779296875 307) rotate(0 77 12.5)"><text x="0" y="18" font-family="Virgil, Segoe UI Emoji" font-size="20px" fill="#000000" text-anchor="start" style="white-space: pre;" direction="ltr">data transfers</text></g><g transform="translate(74 10) rotate(0 43 17.5)"><text x="0" y="25" font-family="Virgil, Segoe UI Emoji" font-size="28px" fill="#1864ab" text-anchor="start" style="white-space: pre;" direction="ltr">server</text></g><g transform="translate(495.60003662109375 15.600021362304688) rotate(0 36.5 17.5)"><text x="0" y="25" font-family="Virgil, Segoe UI Emoji" font-size="28px" fill="#0b7285" text-anchor="start" style="white-space: pre;" direction="ltr">client</text></g></svg>